<?xml version="1.0" encoding="UTF-8" standalone="no"?>
<!-- Created with Inkscape (http://www.inkscape.org/) -->

<svg
   xmlns:dc="http://purl.org/dc/elements/1.1/"
   xmlns:cc="http://creativecommons.org/ns#"
   xmlns:rdf="http://www.w3.org/1999/02/22-rdf-syntax-ns#"
   xmlns:svg="http://www.w3.org/2000/svg"
   xmlns="http://www.w3.org/2000/svg"
   xmlns:sodipodi="http://sodipodi.sourceforge.net/DTD/sodipodi-0.dtd"
   xmlns:inkscape="http://www.inkscape.org/namespaces/inkscape"
   width="210mm"
   height="297mm"
   viewBox="0 0 744.09448819 1052.3622047"
   id="svg2"
   version="1.1"
   inkscape:version="0.91 r13725"
   sodipodi:docname="drawing.svg">
  <defs
     id="defs4" />
  <sodipodi:namedview
     id="base"
     pagecolor="#ffffff"
     bordercolor="#666666"
     borderopacity="1.0"
     inkscape:pageopacity="0.0"
     inkscape:pageshadow="2"
     inkscape:zoom="0.66802256"
     inkscape:cx="27.010654"
     inkscape:cy="667.3346"
     inkscape:document-units="px"
     inkscape:current-layer="layer1"
     showgrid="false"
     showguides="true"
     inkscape:guide-bbox="true"
     inkscape:window-width="1440"
     inkscape:window-height="838"
     inkscape:window-x="-8"
     inkscape:window-y="-8"
     inkscape:window-maximized="1" />
  <metadata
     id="metadata7">
    <rdf:RDF>
      <cc:Work
         rdf:about="">
        <dc:format>image/svg+xml</dc:format>
        <dc:type
           rdf:resource="http://purl.org/dc/dcmitype/StillImage" />
        <dc:title></dc:title>
      </cc:Work>
    </rdf:RDF>
  </metadata>
  <g
     inkscape:label="Layer 1"
     inkscape:groupmode="layer"
     id="layer1">
    <g
       id="g5076"
       inkscape:export-xdpi="90"
       inkscape:export-ydpi="90"
       transform="translate(-16.46651,-7.4847772)">
      <g
         transform="translate(14.289849,95.794914)"
         id="g4555">
        <rect
           style="opacity:0.5;fill:#000000;fill-opacity:1;stroke:none;stroke-width:20;stroke-linecap:round;stroke-miterlimit:4;stroke-dasharray:none;stroke-dashoffset:0;stroke-opacity:1"
           id="rect4136"
           width="744.26062"
           height="100"
           x="0.85546821"
           y="264.56271"
           inkscape:export-xdpi="90"
           inkscape:export-ydpi="90" />
        <g
           style="fill:#000000"
           id="g4391"
           transform="translate(-7.938805,-94.207154)">
          <g
             style="fill:#000000"
             id="g4508"
             transform="translate(0,-12.699453)" />
        </g>
      </g>
      <g
         style="fill:#ffffff"
         transform="translate(0,104.79223)"
         id="g5028">
        <text
           transform="translate(6.351044,-11.111693)"
           sodipodi:linespacing="125%"
           id="text4138"
           y="304.95343"
           x="270.0943"
           style="font-style:normal;font-weight:normal;font-size:22.67644119px;line-height:125%;font-family:sans-serif;letter-spacing:0px;word-spacing:0px;fill:#ffffff;fill-opacity:1;stroke:none;stroke-width:1px;stroke-linecap:butt;stroke-linejoin:miter;stroke-opacity:1"
           xml:space="preserve"><tspan
             y="304.95343"
             x="270.0943"
             id="tspan4140"
             sodipodi:role="line"
             dy="0 0 0 0 0 0 0 -6.3154807 6.3154807"
             style="font-style:normal;font-variant:normal;font-weight:bold;font-stretch:normal;font-family:sans-serif;-inkscape-font-specification:'sans-serif Bold';fill:#ffffff">PRIVACY<tspan
   style="font-style:normal;font-variant:normal;font-weight:bold;font-stretch:normal;font-size:29.53217888px;font-family:sans-serif;-inkscape-font-specification:'sans-serif Bold';fill:#ffffff"
   id="tspan4438">.</tspan>SHADE</tspan></text>
        <rect
           transform="translate(6.351044,-11.111693)"
           y="319.60251"
           x="272.20914"
           height="7.2765694"
           width="203.79669"
           id="rect4389"
           style="opacity:1;fill:#ffffff;fill-opacity:1;stroke:none;stroke-width:20;stroke-linecap:round;stroke-miterlimit:4;stroke-dasharray:none;stroke-dashoffset:0;stroke-opacity:1" />
        <rect
           transform="translate(6.351044,-11.111693)"
           style="opacity:1;fill:#ffffff;fill-opacity:1;stroke:none;stroke-width:20;stroke-linecap:round;stroke-miterlimit:4;stroke-dasharray:none;stroke-dashoffset:0;stroke-opacity:1"
           id="rect4436"
           width="305.20642"
           height="3.1599419"
           x="215.98445"
           y="266.67709" />
        <g
           style="fill:#ffffff"
           id="g4909"
           transform="matrix(1.0006891,0,0,1.0006891,1.3332992,-48.911267)">
          <g
             style="fill:#ffffff"
             transform="matrix(0.12429426,0,0,0.12429426,205.33838,290.17183)"
             id="g4187">
            <g
               style="fill:#ffffff"
               id="g4143"
               transform="matrix(0.57586915,0,0,0.57586915,235.1306,175.55863)">
              <g
                 style="fill:#ffffff"
                 id="g4145">
                <path
                   style="fill:#ffffff"
                   inkscape:connector-curvature="0"
                   d="M 297.517,217.975 C 279.103,212.693 260.304,208.549 241.534,206.303 207.847,200.729 148.115,195.862 91.74,216.5 26.801,240.278 0,232.64 0,232.64 c 0,0 123.417,173.521 244.159,195.418 63.662,14.972 132.076,2.36 186.201,-46.446 l 22.401,-12.05 -13.449,-19.172 C 418.141,276.341 364.168,237.08 297.517,217.975 Z M 320.7,323.372 c -2.853,30.352 -29.117,45.753 -59.478,42.899 -30.343,-2.842 -53.283,-22.883 -50.432,-53.235 2.847,-30.344 24.445,4.036 54.796,6.877 30.352,2.861 57.971,-26.893 55.114,3.459 z m -62.981,-49.027 c -0.897,9.506 -9.329,16.499 -18.831,15.602 -9.512,-0.898 -16.495,-9.33 -15.601,-18.835 0.896,-9.506 9.325,-16.491 18.831,-15.593 9.507,0.888 16.483,9.32 15.601,18.826 z M 241.797,395.79 C 182.842,378.891 140.279,329.912 122.589,268.065 157.786,236.338 199.48,231.046 242.551,237.2 c -27.721,9.249 -48.814,34.079 -51.724,65.036 -3.934,41.834 26.793,78.938 68.627,82.874 41.833,3.932 78.938,-26.794 82.865,-68.631 1.96,-20.875 -4.708,-40.563 -17.067,-55.552 40.647,19.075 70.715,49.521 84.545,97.901 -47.76,43.077 -109.046,53.865 -168,36.962 z"
                   id="path4147" />
                <path
                   style="fill:#ffffff"
                   inkscape:connector-curvature="0"
                   d="M 293.041,106.031 C 213.532,74.29 115.33,92.211 45.883,36.584 29.515,23.468 6.091,46.577 22.638,59.829 c 56.547,45.296 124.25,48.5 193.16,59.066 79.327,12.17 170.808,55.723 219.331,121.167 12.479,16.827 41.032,0.469 28.389,-16.591 -42.696,-57.567 -105.052,-91.333 -170.477,-117.44 z"
                   id="path4149" />
              </g>
            </g>
            <g
               style="fill:#ffffff"
               id="g4151" />
            <g
               style="fill:#ffffff"
               id="g4153" />
            <g
               style="fill:#ffffff"
               id="g4155" />
            <g
               style="fill:#ffffff"
               id="g4157" />
            <g
               style="fill:#ffffff"
               id="g4159" />
            <g
               style="fill:#ffffff"
               id="g4161" />
            <g
               style="fill:#ffffff"
               id="g4163" />
            <g
               style="fill:#ffffff"
               id="g4165" />
            <g
               style="fill:#ffffff"
               id="g4167" />
            <g
               style="fill:#ffffff"
               id="g4169" />
            <g
               style="fill:#ffffff"
               id="g4171" />
            <g
               style="fill:#ffffff"
               id="g4173" />
            <g
               style="fill:#ffffff"
               id="g4175" />
            <g
               style="fill:#ffffff"
               id="g4177" />
            <g
               style="fill:#ffffff"
               id="g4179" />
          </g>
          <g
             style="fill:#ffffff"
             id="g4979"
             transform="matrix(-0.12429426,0,0,0.12429426,551.05936,290.17183)">
            <g
               style="fill:#ffffff"
               transform="matrix(0.57586915,0,0,0.57586915,235.1306,175.55863)"
               id="g4981">
              <g
                 style="fill:#ffffff"
                 id="g4983">
                <path
                   style="fill:#ffffff"
                   id="path4985"
                   d="M 297.517,217.975 C 279.103,212.693 260.304,208.549 241.534,206.303 207.847,200.729 148.115,195.862 91.74,216.5 26.801,240.278 0,232.64 0,232.64 c 0,0 123.417,173.521 244.159,195.418 63.662,14.972 132.076,2.36 186.201,-46.446 l 22.401,-12.05 -13.449,-19.172 C 418.141,276.341 364.168,237.08 297.517,217.975 Z M 320.7,323.372 c -2.853,30.352 -29.117,45.753 -59.478,42.899 -30.343,-2.842 -53.283,-22.883 -50.432,-53.235 2.847,-30.344 24.445,4.036 54.796,6.877 30.352,2.861 57.971,-26.893 55.114,3.459 z m -62.981,-49.027 c -0.897,9.506 -9.329,16.499 -18.831,15.602 -9.512,-0.898 -16.495,-9.33 -15.601,-18.835 0.896,-9.506 9.325,-16.491 18.831,-15.593 9.507,0.888 16.483,9.32 15.601,18.826 z M 241.797,395.79 C 182.842,378.891 140.279,329.912 122.589,268.065 157.786,236.338 199.48,231.046 242.551,237.2 c -27.721,9.249 -48.814,34.079 -51.724,65.036 -3.934,41.834 26.793,78.938 68.627,82.874 41.833,3.932 78.938,-26.794 82.865,-68.631 1.96,-20.875 -4.708,-40.563 -17.067,-55.552 40.647,19.075 70.715,49.521 84.545,97.901 -47.76,43.077 -109.046,53.865 -168,36.962 z"
                   inkscape:connector-curvature="0" />
                <path
                   style="fill:#ffffff"
                   id="path4987"
                   d="M 293.041,106.031 C 213.532,74.29 115.33,92.211 45.883,36.584 29.515,23.468 6.091,46.577 22.638,59.829 c 56.547,45.296 124.25,48.5 193.16,59.066 79.327,12.17 170.808,55.723 219.331,121.167 12.479,16.827 41.032,0.469 28.389,-16.591 -42.696,-57.567 -105.052,-91.333 -170.477,-117.44 z"
                   inkscape:connector-curvature="0" />
              </g>
            </g>
            <g
               style="fill:#ffffff"
               id="g4989" />
            <g
               style="fill:#ffffff"
               id="g4991" />
            <g
               style="fill:#ffffff"
               id="g4993" />
            <g
               style="fill:#ffffff"
               id="g4995" />
            <g
               style="fill:#ffffff"
               id="g4997" />
            <g
               style="fill:#ffffff"
               id="g4999" />
            <g
               style="fill:#ffffff"
               id="g5001" />
            <g
               style="fill:#ffffff"
               id="g5003" />
            <g
               style="fill:#ffffff"
               id="g5005" />
            <g
               style="fill:#ffffff"
               id="g5007" />
            <g
               style="fill:#ffffff"
               id="g5009" />
            <g
               style="fill:#ffffff"
               id="g5011" />
            <g
               style="fill:#ffffff"
               id="g5013" />
            <g
               style="fill:#ffffff"
               id="g5015" />
            <g
               style="fill:#ffffff"
               id="g5017" />
          </g>
        </g>
      </g>
    </g>
  </g>
</svg>
